# xmcd CD database file
#
# Track frame offsets:
#	150
#	12945
#	27583
#	41008
#	53183
#	67382
#	80514
#	95069
#	109126
#	122339
#	136438
#	150548
#	164711
#	177823
#	189517
#	204702
#	214385
#	227208
#	239949
#	253387
#
# Disc length: 3574 seconds
#
# Revision: 2
# Processed by: cddbd v1.5.2PL0 Copyright (c) Steve Scherf et al.
# Submitted via: CDex 1.81
#
DISCID=370df414
DTITLE=Compilation - Best Swing Jazz 100 [Disc 5]
DYEAR=2009
DGENRE=Jazz
TTITLE0=Dream
TTITLE1=Candy
TTITLE2=On The Sunny Side Of The Street
TTITLE3=Autumn In New York
TTITLE4=Besame Mucho
TTITLE5=Amor
TTITLE6=And The Angels Sing
TTITLE7=On A Slow Boat To China
TTITLE8=I've Heard That Song Before
TTITLE9=I'm Beginning To See The Light
TTITLE10=It's Been A Long, Long Time
TTITLE11=Sentimental Journey
TTITLE12=Side By Side
TTITLE13=Imagination
TTITLE14=It's The Talk Of The Town
TTITLE15=Jeepers Creepers
TTITLE16=I Can't Believe That You're In Love With Me
TTITLE17=Green Eyes
TTITLE18=Look For The Silver Lining
TTITLE19=Trav'lin' Light
EXTD=YEAR: 2009
EXTT0=
EXTT1=
EXTT2=
EXTT3=
EXTT4=
EXTT5=
EXTT6=
EXTT7=
EXTT8=
EXTT9=
EXTT10=
EXTT11=
EXTT12=
EXTT13=
EXTT14=
EXTT15=
EXTT16=
EXTT17=
EXTT18=
EXTT19=
PLAYORDER=
